<?xml version="1.0" encoding="UTF-8" standalone="no"?>
<svg
   width="967.41663"
   height="961.77557"
   viewBox="0 0 255.96231 254.4698"
   version="1.1"
   id="svg839"
   inkscape:version="1.0.1 (3bc2e813f5, 2020-09-07)"
   sodipodi:docname="irl.svg"
   xmlns:inkscape="http://www.inkscape.org/namespaces/inkscape"
   xmlns:sodipodi="http://sodipodi.sourceforge.net/DTD/sodipodi-0.dtd"
   xmlns="http://www.w3.org/2000/svg"
   xmlns:svg="http://www.w3.org/2000/svg"
   xmlns:rdf="http://www.w3.org/1999/02/22-rdf-syntax-ns#"
   xmlns:cc="http://creativecommons.org/ns#"
   xmlns:dc="http://purl.org/dc/elements/1.1/">
  <defs
     id="defs833">
    <clipPath
       clipPathUnits="userSpaceOnUse"
       id="clipPath8689">
      <path
         d="m 627.448,60.818 h 53.859 v 53.858 h -53.859 z"
         id="path8687" />
    </clipPath>
    <clipPath
       clipPathUnits="userSpaceOnUse"
       id="clipPath1">
      <rect
         style="fill:#ffff00;stroke-width:0.3"
         id="rect2"
         width="255.96231"
         height="254.4698"
         x="4.4774747"
         y="5.2237206"
         ry="10.100745" />
    </clipPath>
  </defs>
  <sodipodi:namedview
     id="base"
     pagecolor="#ffffff"
     bordercolor="#666666"
     borderopacity="1.0"
     inkscape:pageopacity="0.0"
     inkscape:pageshadow="2"
     inkscape:zoom="0.35455254"
     inkscape:cx="519.36877"
     inkscape:cy="560"
     inkscape:document-units="px"
     inkscape:current-layer="layer1"
     inkscape:document-rotation="0"
     showgrid="false"
     units="px"
     inkscape:window-width="1600"
     inkscape:window-height="837"
     inkscape:window-x="-8"
     inkscape:window-y="-8"
     inkscape:window-maximized="1"
     inkscape:showpageshadow="2"
     inkscape:pagecheckerboard="0"
     inkscape:deskcolor="#d1d1d1" />
  <metadata
     id="metadata836">
    <rdf:RDF>
      <cc:Work
         rdf:about="">
        <dc:format>image/svg+xml</dc:format>
        <dc:type
           rdf:resource="http://purl.org/dc/dcmitype/StillImage" />
        <dc:title />
      </cc:Work>
    </rdf:RDF>
  </metadata>
  <g
     inkscape:label="Layer 1"
     inkscape:groupmode="layer"
     id="layer1"
     transform="translate(-4.4774748,-5.2237209)">
    <g
       id="g13724"
       clip-path="url(#clipPath1)">
      <path
         d="M 0,264.57345 H 264.58334 V 0 H 0 Z"
         style="fill:#000000;fill-opacity:1;fill-rule:nonzero;stroke:none;stroke-width:4.91251"
         id="path8681" />
      <g
         id="g8683"
         transform="matrix(4.912518,0,0,-4.912518,-3082.3496,563.34299)">
        <g
           id="g8685"
           clip-path="url(#clipPath8689)">
          <g
             id="g8691"
             transform="translate(663.6388,92.7441)">
            <path
               d="m 0,0 c -1.756,0 -3.232,1.253 -3.498,3.028 h 3.324 c 0.365,0 1.167,-0.079 1.167,-0.079 v 1.473 c 0,0 -0.785,-0.059 -1.224,-0.059 h -3.267 c 0.327,1.74 1.761,2.943 3.498,2.943 0.916,0 2.045,-0.421 2.045,-0.421 l 0.019,1.547 c 0,0 -0.802,0.306 -2.064,0.306 -2.922,0 -5.479,-2.233 -5.479,-5.079 0,-3.078 2.557,-5.155 5.479,-5.155 1.373,0 2.194,0.366 2.194,0.366 L 2.156,0.471 C 2.156,0.471 1.142,0 0,0"
               style="fill:#ffffff;fill-opacity:1;fill-rule:nonzero;stroke:none"
               id="path8693" />
          </g>
          <g
             id="g8695"
             transform="translate(653.6935,91.2867)">
            <path
               d="m 0,0 c 0,0 0.111,0.742 0.111,1.392 v 7.061 h -0.478 c -0.651,0 -1.658,0 -2.401,-0.072 l -0.063,1.641 H 4.923 L 4.887,8.381 C 4.118,8.453 3.131,8.453 2.46,8.453 H 1.87 V 1.392 C 1.87,0.742 2.002,0 2.002,0 H 0"
               style="fill:#ffffff;fill-opacity:1;fill-rule:nonzero;stroke:none"
               id="path8697" />
          </g>
          <g
             id="g8699"
             transform="translate(665.7159,102.1271)">
            <path
               d="m 0,0 c -0.57,0.161 -1.316,0.27 -1.943,0.27 -1.702,0 -3.169,-0.517 -4.393,-1.605 l 0.019,1.203 c 1.297,0.884 2.769,1.28 4.374,1.28 0.704,0 1.318,-0.096 1.962,-0.264 L 0,0"
               style="fill:#ffffff;fill-opacity:1;fill-rule:nonzero;stroke:none"
               id="path8701" />
          </g>
          <g
             id="g8703"
             transform="translate(646.2613,96.443)">
            <path
               d="m 0,0 h -1.446 v 3.643 c 0,0 0.704,0.021 1.542,0.021 0.126,0 0.246,-0.011 0.357,-0.015 C 1.8,3.536 2.354,2.806 2.354,1.922 2.354,0.933 1.572,0.187 0.453,0.027 0.308,0.008 0.153,0 0,0 m 3.959,-3.783 -2.695,2.595 c 1.658,0.161 3.053,1.379 3.053,2.961 0,1.683 -0.97,3.173 -3.864,3.293 -0.12,0.006 -0.245,0.01 -0.375,0.01 -2.002,0 -3.375,-0.098 -3.375,-0.098 0,0 0.09,-0.987 0.09,-1.484 v -7.277 c 0,-0.671 -0.13,-1.373 -0.13,-1.373 h 2.021 c 0,0 -0.13,0.702 -0.13,1.505 v 2.961 l 1.899,-1.988 0.96,-0.994 c 0.593,-0.645 1.626,-1.484 1.626,-1.484 h 2.672 c 0,0 -1.195,0.839 -1.752,1.373"
               style="fill:#ffffff;fill-opacity:1;fill-rule:nonzero;stroke:none"
               id="path8705" />
          </g>
          <g
             id="g8707"
             transform="translate(630.9632,76.3328)">
            <path
               d="m 0,0 c 0.079,1.398 0.542,2.471 1.386,3.217 0.844,0.744 2.229,1.299 4.156,1.662 0.399,0.076 0.937,0.168 1.608,0.279 1.489,0.237 2.233,0.528 2.233,0.87 0,0.234 -0.158,0.41 -0.471,0.53 C 8.598,6.675 8.138,6.736 7.529,6.736 6.7,6.736 6.095,6.64 5.709,6.447 5.325,6.256 5.131,5.954 5.131,5.546 V 5.518 H 0.404 c 0.06,1.147 0.655,2.004 1.781,2.574 1.124,0.57 2.792,0.853 5,0.853 2.256,0 3.954,-0.239 5.092,-0.717 C 13.413,7.748 13.98,7.033 13.98,6.084 13.98,5.359 13.696,4.787 13.127,4.376 12.556,3.961 11.602,3.64 10.26,3.404 9.763,3.32 9.074,3.217 8.195,3.091 6.334,2.829 5.194,2.538 4.771,2.219 h 8.972 L 13.743,0 H 0"
               style="fill:#ffffff;fill-opacity:1;fill-rule:nonzero;stroke:none"
               id="path8709" />
          </g>
          <g
             id="g8711"
             transform="translate(664.4947,76.3539)">
            <path
               d="m 0,0 v 8.901 h 5.122 l 1.505,-5.422 1.63,5.422 h 5.041 V 0 H 10.104 V 6.952 L 7.983,0 H 5.292 L 3.194,6.952 V 0 Z"
               style="fill:#ffffff;fill-opacity:1;fill-rule:nonzero;stroke:none"
               id="path8713" />
          </g>
          <g
             id="g8715"
             transform="translate(663.4963,85.7063)">
            <path
               d="m 0,0 -8.471,-3.498 v -2.71 L 0,-9.71 v 2.731 c 0,0 -4.225,1.731 -5.216,2.136 C -4.225,-4.439 0,-2.712 0,-2.712 Z m -17.682,-2.697 c 0,0 4.227,-1.731 5.217,-2.136 -0.991,-0.406 -5.217,-2.131 -5.217,-2.131 v -2.714 l 8.471,3.5 v 2.709 l -8.471,3.503 z"
               style="fill:#ffffff;fill-opacity:1;fill-rule:nonzero;stroke:none"
               id="path8717" />
          </g>
        </g>
      </g>
    </g>
  </g>
</svg>
