<svg id="Livello_1" data-name="Livello 1" xmlns="http://www.w3.org/2000/svg" viewBox="0 0 716.14 698.04"><title>Antena 3 (stacked with wordmark)</title><path d="M313.89,175.72V322.14c0,13.22,10.51,23.95,23.43,23.95s23.3-10.73,23.3-23.95V175.72c0-13.32-10.39-23.95-23.3-23.95a23.65,23.65,0,0,0-23.43,23.95" fill="#f87307"/><path d="M150.59,353.72V24c0-13.26-10.54-24-23.43-24s-23.31,10.77-23.31,24V353.72c0,13.28,10.49,24,23.31,24s23.43-10.7,23.43-24" fill="#f87307"/><path d="M33.71,109.57V388.21a23.64,23.64,0,0,0,23.44,24c12.81,0,23.35-10.69,23.35-24V109.57c0-13.25-10.54-24-23.35-24-13,0-23.44,10.78-23.44,24" fill="#f87307"/><path d="M220.75,473.1V129.29c0-13.26-10.54-24-23.44-24S174,116,174,129.29V473.1c0,13.27,10.48,24,23.29,24a23.71,23.71,0,0,0,23.44-24" fill="#f87307"/><path d="M290.81,388.7V80.87c0-13.27-10.54-24-23.44-24s-23.3,10.77-23.3,24V388.7c0,13.27,10.48,24,23.3,24s23.44-10.7,23.44-24" fill="#f87307"/><path d="M588.52,227.21a4.58,4.58,0,0,1,4.57-4.6h14c30.35,0,53-16.07,53-46.13,0-25.42-18-45.62-48.38-45.62-31.84,0-49.69,19.72-53.1,45.75a4.59,4.59,0,0,1-4.52,4H510.93a4.6,4.6,0,0,1-4.51-5.34c8.52-52.74,47.49-91.08,104.74-91.08,62.27,0,98.81,37.33,98.81,89.16,0,33.18-16,60.65-41.17,71.54,32.41,13.47,47.34,42.5,47.34,72,0,53.91-39.11,95.9-104.47,95.9-63,0-107-38.63-112.8-95.47a4.61,4.61,0,0,1,4.55-5.09h43a4.57,4.57,0,0,1,4.5,3.86c4.79,30,25.14,50.56,60.2,50.56,31.9,0,54.54-19.69,54.54-49.24,0-30.59-23.67-49.76-57.11-49.76h-15.5a4.59,4.59,0,0,1-4.57-4.6Z" fill="#f87307"/><path d="M68.8,581.33,113.48,698H88.77L78.32,669.9H34.59L24.33,698H0L44.66,581.33Zm-26.6,68H70.71L56.46,610.6Z" fill="#f87307"/><path d="M225.24,698H206l-55.12-77.76V698H127.55V581.33h22.8l51.52,73.75V581.33h23.37Z" fill="#f87307"/><path d="M241.39,581.33H341v21.29H303.38V698H278.84V602.62H241.39Z" fill="#f87307"/><path d="M436.22,581.33v21.29H380.91v25.47h50.18v20.72H380.91v27.74h55.31V698H357V581.33Z" fill="#f87307"/><path d="M552.74,698H533.55l-55.13-77.76V698H455.05V581.33h22.8l51.52,73.75V581.33h23.37Z" fill="#f87307"/><path d="M635.61,581.33,680.28,698H655.57L645.12,669.9H601.39L591.13,698H566.81l44.66-116.71Zm-26.61,68h28.51L623.26,610.6Z" fill="#f87307"/></svg>