<?xml version="1.0" encoding="utf-8"?>
<!-- Generator: Adobe Illustrator 27.2.0, SVG Export Plug-In . SVG Version: 6.00 Build 0)  -->
<svg version="1.1" id="Шар_1" xmlns="http://www.w3.org/2000/svg" xmlns:xlink="http://www.w3.org/1999/xlink" x="0px" y="0px"
	 viewBox="0 0 150 150" style="enable-background:new 0 0 150 150;" xml:space="preserve">
<style type="text/css">
	.st0{fill:#E10600;}
	.st1{fill:#FFFFFF;}
</style>
<path class="st0" d="M125.3,150H24.7C11.1,150,0,138.9,0,125.3V24.7C0,11.1,11.1,0,24.7,0h100.5C138.9,0,150,11.1,150,24.7v100.5
	C150,138.9,138.9,150,125.3,150"/>
<g>
	<path class="st1" d="M28.7,71.7c-3,0-5.5-2.5-5.5-5.5s2.5-5.5,5.5-5.5c3,0,5.5,2.5,5.5,5.5S31.7,71.7,28.7,71.7 M28.7,89.3
		c3,0,5.5-2.5,5.5-5.5c0-3-2.5-5.5-5.5-5.5c-3,0-5.5,2.5-5.5,5.5C23.2,86.8,25.6,89.3,28.7,89.3"/>
	<path class="st1" d="M90.7,65.8H78.1v6.5h7.1c1.3,0,2.3,1.1,2.3,2.4c0,1.3-1,2.4-2.3,2.4h-7.1v9.4c0,1.4-1.1,2.5-2.5,2.5
		c-1.4,0-2.5-1.1-2.5-2.5V63.6c0-1.4,1.1-2.5,2.5-2.5h15.2c1.3,0,2.4,1,2.4,2.4C93.1,64.7,92,65.8,90.7,65.8"/>
	<path class="st1" d="M124.4,89c-1.3,0-2.4-1.1-2.4-2.4V72.8L115,87.7c-0.4,0.9-1.2,1.3-2.1,1.3c-1,0-1.6-0.4-2.1-1.3l-7.1-14.9
		v13.8c0,1.3-1.1,2.4-2.4,2.4c-1.3,0-2.4-1.1-2.4-2.4V63.1c0-1.3,1-2.4,2.4-2.4c1.1,0,1.8,0.7,2.2,1.5l9.4,19.5l9.3-19.5
		c0.4-0.9,1.2-1.5,2.2-1.5c1.5,0,2.4,1,2.4,2.4v23.5C126.8,87.9,125.8,89,124.4,89"/>
	<g>
		<path class="st1" d="M63.8,89.2H49.3c-1.1,0-2.1-1-2.1-2.1c0-1.2,1-2.2,2.1-2.2h14.4c1.1,0,2.1,1,2.1,2.2
			C65.9,88.3,64.9,89.2,63.8,89.2"/>
	</g>
</g>
</svg>
